<?xml version="1.0" encoding="iso-8859-1"?>
<!-- Generator: Adobe Illustrator 16.0.0, SVG Export Plug-In . SVG Version: 6.00 Build 0)  -->
<!DOCTYPE svg PUBLIC "-//W3C//DTD SVG 1.1//EN" "http://www.w3.org/Graphics/SVG/1.1/DTD/svg11.dtd">
<svg version="1.1" id="Calque_1" xmlns="http://www.w3.org/2000/svg" xmlns:xlink="http://www.w3.org/1999/xlink" x="0px" y="0px"
	 width="50px" height="50px" viewBox="0 0 50 50" style="enable-background:new 0 0 50 50;" xml:space="preserve">
<path style="fill:#002D4F;" d="M38.662,32.354C27.879,47.267,8.768,47.077,6.311,44.472c-4.395-4.66-3.596-18.375,4.525-29.291
	C20.91,1.64,42.791,2.399,44.92,4.396C47.809,7.104,46.574,21.417,38.662,32.354z"/>
<g>
	<path style="fill:#FFFFFF;" d="M5.246,44.829c4.766,1.984,8.695,1.408,12.729,0.975c3.883-0.42,7.756-1.826,11.148-3.734
		c5.709-3.209,10.289-8.592,13.135-14.447c1.879-3.865,3.369-8.007,4.197-12.228c0.695-3.543,0.869-8.287-0.539-11.102
		C45.1,2.662,30.793,1.725,24.074,4.673C18.037,7.319,12.6,11.045,8.973,16.56c-2.9,4.414-5.236,8.416-5.689,14.693
		C2.832,37.442,4.723,44.61,5.246,44.829z M14.312,36.97c0.285,0.145,1.521,0.918,1.816,1.021c0.91,0.318,1.352-1.205,0.41-1.439
		c-0.104-0.027-1.098-0.623-1.199-0.658c0.5-0.531,0.977-1.086,1.441-1.654c0.215,0.158,1.316,0.887,1.529,1.057
		c0.84,0.688,1.771-0.502,0.92-1.17c-0.209-0.162-1.021-0.84-1.236-0.992c0.289-0.363,0.584-0.727,0.879-1.082
		c0.098-0.115,0.195-0.227,0.293-0.34c0.551,0.307,1.738,1.08,2.354,1.26c0.949,0.275,1.369-1.199,0.422-1.471
		c-0.391-0.113-1.387-0.572-1.746-0.748c0.582-0.615,1.182-1.207,1.787-1.799c0.326,0.229,1.266,0.787,1.559,1.057
		c0.729,0.676,1.838-0.402,1.104-1.082c-0.293-0.268-1.232-0.91-1.553-1.145c0.379-0.363,0.754-0.732,1.121-1.098
		c0.24-0.242,0.473-0.48,0.701-0.727c0.037,0.021,0.072,0.043,0.109,0.066c0.422,0.262,1.502,1.129,2.027,1.084
		c0.314-0.027,0.539-0.225,0.557-0.545c0.035-0.57-0.916-1.441-1.465-1.795c0.615-0.702,1.217-1.413,1.824-2.122
		c0.352,0.371,1.154,1.17,1.506,1.544c0.68,0.736,1.789-0.355,1.105-1.09c-0.361-0.385-1.178-1.342-1.566-1.761
		c0.156-0.176,0.312-0.351,0.469-0.523c0.424-0.463,0.893-0.922,1.359-1.395c0.25,0.306,0.936,1.159,1.168,1.476
		c0.596,0.806,1.969,0.032,1.365-0.782c-0.297-0.4-1.076-1.416-1.455-1.873c0.359-0.426,0.691-0.871,0.959-1.345
		c0.094-0.129,0.18-0.268,0.258-0.411c0.277,0.34,0.949,1.267,1.115,1.662c0.373,0.887,1.676,0.137,1.303-0.743
		c-0.172-0.399-0.404-0.775-0.674-1.126l-0.426-0.5c-0.1-0.105-0.383-0.639-0.387-0.677c1.102-0.986,2.23-1.947,3.324-2.94
		c1.65-1.501,3.316-2.997,5.035-4.423c0.764-0.632,1.549-1.242,2.346-1.833c0.904,2.165,0.877,4.646,0.65,6.954
		c-0.332,3.334-1.312,6.611-2.492,9.732c-2.324,6.157-5.969,11.958-11.141,16.065c-3.414,2.711-7.748,4.504-11.965,5.568
		c-4.705,1.186-13.25-0.178-13.488-0.307c0.883-1.043,4.268-4.328,6.592-6.65c0.246,0.332-0.332-0.043,0.096,0.137
		c0.27,0.113,0.574-0.031,0.777-0.197c0.072-0.061,0.139-0.117,0.207-0.176L14.312,36.97z M32.865,14.17
		c-0.049,0-0.297,0.019-0.369,0.039c-0.316-0.169-0.658-0.297-0.977-0.3c-0.473-0.003-1.227,0.326-0.889,0.932
		c0.139,0.252,0.381,0.365,0.639,0.452c-0.406,0.489-0.832,0.958-1.275,1.416c-0.514-0.274-1.059-0.441-1.635-0.433
		c-0.672,0.009-0.869,0.85-0.34,1.213c0.242,0.165,0.494,0.307,0.748,0.443c-0.453,0.438-0.908,0.872-1.357,1.307
		c-0.139,0.132-0.271,0.269-0.404,0.403c-0.385-0.264-0.789-0.493-1.209-0.662c-0.643-0.263-1.078,0.653-0.65,1.098
		c0.238,0.252,0.498,0.486,0.77,0.711c-0.723,0.791-1.424,1.6-2.133,2.404c-0.176-0.223-0.342-0.449-0.555-0.637
		c-0.557-0.492-1.307-0.024-1.195,0.681c0.07,0.431,0.326,0.818,0.658,1.166c-0.582,0.629-1.164,1.253-1.748,1.878
		c-0.146-0.117-0.293-0.236-0.434-0.365c-0.355-0.33-0.59-0.797-1.121-0.814c-0.199-0.006-0.385,0.108-0.486,0.271
		c-0.438,0.713,0.34,1.484,1.014,2.023c-0.525,0.58-1.049,1.168-1.553,1.771c-0.375-0.398-0.742-0.801-1.172-1.137
		c-0.568-0.443-1.08,0.359-0.873,0.857c0.215,0.523,0.592,1.01,1.016,1.443c-0.443,0.48-0.898,0.955-1.35,1.43
		c-0.461-0.4-0.9-0.812-1.395-1.17c-0.539-0.393-1.059,0.328-0.834,0.82c0.256,0.562,0.725,1.021,1.223,1.428
		c-0.256,0.285-0.502,0.582-0.746,0.879c-0.289,0.064-0.584,0.18-0.852,0.293l0,0c-0.217-0.365-0.324-0.752-0.627-1.064
		c-0.262-0.277-0.801-0.168-0.885,0.225c-0.104,0.469,0.016,0.941,0.234,1.389l0.188,0.34c0.145,0.232,0.309,0.457,0.473,0.666
		c-0.092,0.195-0.145,0.387-0.164,0.568c-0.158,0.176-0.312,0.348-0.467,0.521c-0.711,0.797-3.52,3.658-4.227,4.406
		c-0.74,0.789-1.564,1.545-2.182,2.25C4.109,39.815,3.572,31.466,5.26,26.364c1.908-5.759,5.25-11.04,9.893-15.019
		c7.676-6.58,19.312-9.29,28.941-6.551c-3.428,2.569-6.6,5.65-9.799,8.494c-0.348,0.309-0.691,0.618-1.035,0.929
		c-0.006-0.002-0.014-0.005-0.023-0.007L32.865,14.17z"/>
</g>
</svg>
